<svg version="1.1" xmlns="http://www.w3.org/2000/svg" xmlns:xlink="http://www.w3.org/1999/xlink" width="574.4326171875" height="76"><defs/><g><text fill="#eeeeee" stroke="none" font-family="Arial" font-size="24px" font-style="normal" font-weight="normal" text-decoration="none" x="0" y="0">UNREGISTERED</text><text fill="#eeeeee" stroke="none" font-family="Arial" font-size="24px" font-style="normal" font-weight="normal" text-decoration="none" x="0" y="30">UNREGISTERED</text><text fill="#eeeeee" stroke="none" font-family="Arial" font-size="24px" font-style="normal" font-weight="normal" text-decoration="none" x="0" y="60">UNREGISTERED</text><text fill="#eeeeee" stroke="none" font-family="Arial" font-size="24px" font-style="normal" font-weight="normal" text-decoration="none" x="200" y="0">UNREGISTERED</text><text fill="#eeeeee" stroke="none" font-family="Arial" font-size="24px" font-style="normal" font-weight="normal" text-decoration="none" x="200" y="30">UNREGISTERED</text><text fill="#eeeeee" stroke="none" font-family="Arial" font-size="24px" font-style="normal" font-weight="normal" text-decoration="none" x="200" y="60">UNREGISTERED</text><text fill="#eeeeee" stroke="none" font-family="Arial" font-size="24px" font-style="normal" font-weight="normal" text-decoration="none" x="400" y="0">UNREGISTERED</text><text fill="#eeeeee" stroke="none" font-family="Arial" font-size="24px" font-style="normal" font-weight="normal" text-decoration="none" x="400" y="30">UNREGISTERED</text><text fill="#eeeeee" stroke="none" font-family="Arial" font-size="24px" font-style="normal" font-weight="normal" text-decoration="none" x="400" y="60">UNREGISTERED</text><g transform="translate(-30,-245) scale(1,1)"><rect fill="#C0C0C0" stroke="none" x="47" y="271" width="106.4326171875" height="32" opacity="0.2"/></g><g transform="translate(-30,-245) scale(1,1)"><rect fill="#ffffff" stroke="none" x="40" y="264" width="106.4326171875" height="32"/></g><g transform="translate(-30,-245) scale(1,1)"><path fill="none" stroke="#000000" d="M 40 264 L 146.4326171875 264 L 146.4326171875 296 L 40 296 L 40 264 Z Z" stroke-miterlimit="10"/></g><g transform="translate(-30,-245) scale(1,1)"><g><path fill="none" stroke="none"/><text fill="#000000" stroke="none" font-family="Arial" font-size="13px" font-style="normal" font-weight="normal" text-decoration="none" x="93.21630859375" y="275"></text></g></g><g transform="translate(-30,-245) scale(1,1)"><g><path fill="none" stroke="none"/><text fill="#000000" stroke="none" font-family="Arial" font-size="13px" font-style="normal" font-weight="normal" text-decoration="none" x="74.078125" y="285">RDMS</text></g></g><g transform="translate(-30,-245) scale(1,1)"><g><path fill="none" stroke="none"/><text fill="#000000" stroke="none" font-family="Arial" font-size="13px" font-style="normal" font-weight="normal" text-decoration="none" x="-32.5" y="22"></text></g></g><g transform="translate(-30,-245) scale(1,1)"><path fill="#C0C0C0" stroke="none" d="M 305 263 L 358.18994140625 263 Q 368.18994140625 263 368.18994140625 273 L 368.18994140625 308 Q 368.18994140625 318 358.18994140625 318 L 305 318 Q 295 318 295 308 L 295 273 Q 295 263 305 263 Z" opacity="0.2"/></g><g transform="translate(-30,-245) scale(1,1)"><path fill="#ffffff" stroke="none" d="M 298 256 L 351.18994140625 256 Q 361.18994140625 256 361.18994140625 266 L 361.18994140625 301 Q 361.18994140625 311 351.18994140625 311 L 298 311 Q 288 311 288 301 L 288 266 Q 288 256 298 256 Z"/></g><g transform="translate(-30,-245) scale(1,1)"><path fill="none" stroke="#000000" d="M 298 256 L 351.18994140625 256 Q 361.18994140625 256 361.18994140625 266 L 361.18994140625 301 Q 361.18994140625 311 351.18994140625 311 L 298 311 Q 288 311 288 301 L 288 266 Q 288 256 298 256 Z" stroke-miterlimit="10"/></g><g transform="translate(-30,-245) scale(1,1)"><path fill="none" stroke="#000000" d="M 288 279 L 361.18994140625 279" stroke-miterlimit="10"/></g><g transform="translate(-30,-245) scale(1,1)"><g><path fill="none" stroke="none"/><text fill="#000000" stroke="none" font-family="Arial" font-size="13px" font-style="normal" font-weight="normal" text-decoration="none" x="305.094970703125" y="299">UEWS</text></g></g><g transform="translate(-30,-245) scale(1,1)"><g><path fill="none" stroke="none"/><text fill="#000000" stroke="none" font-family="Arial" font-size="13px" font-style="normal" font-weight="normal" text-decoration="none" x="320.97998046875" y="272">0</text></g></g><g transform="translate(-30,-245) scale(1,1)"><rect fill="#C0C0C0" stroke="none" x="495" y="271" width="106.4326171875" height="45" opacity="0.2"/></g><g transform="translate(-30,-245) scale(1,1)"><rect fill="#ffffff" stroke="none" x="488" y="264" width="106.4326171875" height="45"/></g><g transform="translate(-30,-245) scale(1,1)"><path fill="none" stroke="#000000" d="M 488 264 L 594.4326171875 264 L 594.4326171875 309 L 488 309 L 488 264 Z Z" stroke-miterlimit="10"/></g><g transform="translate(-30,-245) scale(1,1)"><g><path fill="none" stroke="none"/><text fill="#000000" stroke="none" font-family="Arial" font-size="13px" font-style="normal" font-weight="normal" text-decoration="none" x="541.21630859375" y="275"></text></g></g><g transform="translate(-30,-245) scale(1,1)"><g><path fill="none" stroke="none"/><text fill="#000000" stroke="none" font-family="Arial" font-size="13px" font-style="normal" font-weight="normal" text-decoration="none" x="522.062255859375" y="285">Range</text><text fill="#000000" stroke="none" font-family="Arial" font-size="13px" font-style="normal" font-weight="normal" text-decoration="none" x="512.3154296875" y="298">Operators</text></g></g><g transform="translate(-30,-245) scale(1,1)"><g><path fill="none" stroke="none"/><text fill="#000000" stroke="none" font-family="Arial" font-size="13px" font-style="normal" font-weight="normal" text-decoration="none" x="-0.5" y="6"></text></g></g><g transform="translate(-30,-245) scale(1,1)"><path fill="none" stroke="#000000" d="M 488 272 L 361 272" stroke-miterlimit="10"/></g><g transform="translate(-30,-245) scale(1,1)"><path fill="#000000" stroke="none" d="M 371.16267485762415 267.790482243984 L 361 272 L 371.16267485762415 276.209517756016"/></g><g transform="translate(-30,-245) scale(1,1)"><path fill="none" stroke="#000000" d="M 371.16267485762415 267.790482243984 L 361 272 L 371.16267485762415 276.209517756016 L 371.16267485762415 267.790482243984" stroke-miterlimit="10"/></g><g transform="translate(-30,-245) scale(1,1)"><g><path fill="none" stroke="none"/><text fill="#000000" stroke="none" font-family="Arial" font-size="13px" font-style="normal" font-weight="normal" text-decoration="none" x="373.5" y="266">Manual Override</text></g></g><g transform="translate(-30,-245) scale(1,1)"><path fill="none" stroke="#000000" d="M 361 304 L 488 304" stroke-miterlimit="10"/></g><g transform="translate(-30,-245) scale(1,1)"><path fill="#000000" stroke="none" d="M 477.83732514237585 308.209517756016 L 488 304 L 477.83732514237585 299.790482243984"/></g><g transform="translate(-30,-245) scale(1,1)"><path fill="none" stroke="#000000" d="M 477.83732514237585 308.209517756016 L 488 304 L 477.83732514237585 299.790482243984 L 477.83732514237585 308.209517756016" stroke-miterlimit="10"/></g><g transform="translate(-30,-245) scale(1,1)"><g><path fill="none" stroke="none"/><text fill="#000000" stroke="none" font-family="Arial" font-size="13px" font-style="normal" font-weight="normal" text-decoration="none" x="407.5" y="294">Alerts</text></g></g><g transform="translate(-30,-245) scale(1,1)"><path fill="none" stroke="#000000" d="M 146 283 L 288 283" stroke-miterlimit="10"/></g><g transform="translate(-30,-245) scale(1,1)"><path fill="#000000" stroke="none" d="M 277.83732514237585 287.209517756016 L 288 283 L 277.83732514237585 278.790482243984"/></g><g transform="translate(-30,-245) scale(1,1)"><path fill="none" stroke="#000000" d="M 277.83732514237585 287.209517756016 L 288 283 L 277.83732514237585 278.790482243984 L 277.83732514237585 287.209517756016" stroke-miterlimit="10"/></g><g transform="translate(-30,-245) scale(1,1)"><g><path fill="none" stroke="none"/><text fill="#000000" stroke="none" font-family="Arial" font-size="13px" font-style="normal" font-weight="normal" text-decoration="none" x="164.5" y="273">UTF-8 RSDF data</text></g></g></g></svg>