<svg version="1.1" xmlns="http://www.w3.org/2000/svg" xmlns:xlink="http://www.w3.org/1999/xlink" width="350.2353515625" height="167"><defs/><g><text fill="#eeeeee" stroke="none" font-family="Arial" font-size="24px" font-style="normal" font-weight="normal" text-decoration="none" x="0" y="0">UNREGISTERED</text><text fill="#eeeeee" stroke="none" font-family="Arial" font-size="24px" font-style="normal" font-weight="normal" text-decoration="none" x="0" y="30">UNREGISTERED</text><text fill="#eeeeee" stroke="none" font-family="Arial" font-size="24px" font-style="normal" font-weight="normal" text-decoration="none" x="0" y="60">UNREGISTERED</text><text fill="#eeeeee" stroke="none" font-family="Arial" font-size="24px" font-style="normal" font-weight="normal" text-decoration="none" x="0" y="90">UNREGISTERED</text><text fill="#eeeeee" stroke="none" font-family="Arial" font-size="24px" font-style="normal" font-weight="normal" text-decoration="none" x="0" y="120">UNREGISTERED</text><text fill="#eeeeee" stroke="none" font-family="Arial" font-size="24px" font-style="normal" font-weight="normal" text-decoration="none" x="0" y="150">UNREGISTERED</text><text fill="#eeeeee" stroke="none" font-family="Arial" font-size="24px" font-style="normal" font-weight="normal" text-decoration="none" x="200" y="0">UNREGISTERED</text><text fill="#eeeeee" stroke="none" font-family="Arial" font-size="24px" font-style="normal" font-weight="normal" text-decoration="none" x="200" y="30">UNREGISTERED</text><text fill="#eeeeee" stroke="none" font-family="Arial" font-size="24px" font-style="normal" font-weight="normal" text-decoration="none" x="200" y="60">UNREGISTERED</text><text fill="#eeeeee" stroke="none" font-family="Arial" font-size="24px" font-style="normal" font-weight="normal" text-decoration="none" x="200" y="90">UNREGISTERED</text><text fill="#eeeeee" stroke="none" font-family="Arial" font-size="24px" font-style="normal" font-weight="normal" text-decoration="none" x="200" y="120">UNREGISTERED</text><text fill="#eeeeee" stroke="none" font-family="Arial" font-size="24px" font-style="normal" font-weight="normal" text-decoration="none" x="200" y="150">UNREGISTERED</text><g transform="translate(-390,-350) scale(1,1)"><rect fill="#C0C0C0" stroke="none" x="639" y="367" width="98.2353515625" height="147" opacity="0.2"/></g><g transform="translate(-390,-350) scale(1,1)"><rect fill="#ffffff" stroke="none" x="632" y="360" width="98.2353515625" height="147"/></g><g transform="translate(-390,-350) scale(1,1)"><path fill="none" stroke="#000000" d="M 632 360 L 730.2353515625 360 L 730.2353515625 507 L 632 507 L 632 360 Z Z" stroke-miterlimit="10"/></g><g transform="translate(-390,-350) scale(1,1)"><path fill="none" stroke="#000000" d="M 632 385 L 730.2353515625 385" stroke-miterlimit="10"/></g><g transform="translate(-390,-350) scale(1,1)"><path fill="none" stroke="#000000" d="M 632 483 L 730.2353515625 483" stroke-miterlimit="10"/></g><g transform="translate(-390,-350) scale(1,1)"><g><path fill="none" stroke="none"/><text fill="#000000" stroke="none" font-family="Arial" font-size="13px" font-style="normal" font-weight="bold" text-decoration="none" x="666.67041015625" y="378">TSPI</text></g></g><g transform="translate(-390,-350) scale(1,1)"><g><path fill="none" stroke="none"/><text fill="#000000" stroke="none" font-family="Arial" font-size="13px" font-style="normal" font-weight="normal" text-decoration="none" x="637" y="401">+x_pos: int</text></g></g><g transform="translate(-390,-350) scale(1,1)"><g><path fill="none" stroke="none"/><text fill="#000000" stroke="none" font-family="Arial" font-size="13px" font-style="normal" font-weight="normal" text-decoration="none" x="637" y="416">+y: int</text></g></g><g transform="translate(-390,-350) scale(1,1)"><g><path fill="none" stroke="none"/><text fill="#000000" stroke="none" font-family="Arial" font-size="13px" font-style="normal" font-weight="normal" text-decoration="none" x="637" y="431">+z: int</text></g></g><g transform="translate(-390,-350) scale(1,1)"><g><path fill="none" stroke="none"/><text fill="#000000" stroke="none" font-family="Arial" font-size="13px" font-style="normal" font-weight="normal" text-decoration="none" x="637" y="446">+speed: float</text></g></g><g transform="translate(-390,-350) scale(1,1)"><g><path fill="none" stroke="none"/><text fill="#000000" stroke="none" font-family="Arial" font-size="13px" font-style="normal" font-weight="normal" text-decoration="none" x="637" y="461">+heading: float</text></g></g><g transform="translate(-390,-350) scale(1,1)"><g><path fill="none" stroke="none"/><text fill="#000000" stroke="none" font-family="Arial" font-size="13px" font-style="normal" font-weight="normal" text-decoration="none" x="637" y="476">+time: datetime</text></g></g><g transform="translate(-390,-350) scale(1,1)"><rect fill="#C0C0C0" stroke="none" x="407" y="383" width="121.37255859375" height="72" opacity="0.2"/></g><g transform="translate(-390,-350) scale(1,1)"><rect fill="#ffffff" stroke="none" x="400" y="376" width="121.37255859375" height="72"/></g><g transform="translate(-390,-350) scale(1,1)"><path fill="none" stroke="#000000" d="M 400 376 L 521.37255859375 376 L 521.37255859375 448 L 400 448 L 400 376 Z Z" stroke-miterlimit="10"/></g><g transform="translate(-390,-350) scale(1,1)"><path fill="none" stroke="#000000" d="M 400 401 L 521.37255859375 401" stroke-miterlimit="10"/></g><g transform="translate(-390,-350) scale(1,1)"><path fill="none" stroke="#000000" d="M 400 426 L 521.37255859375 426" stroke-miterlimit="10"/></g><g transform="translate(-390,-350) scale(1,1)"><g><path fill="none" stroke="none"/><text fill="#000000" stroke="none" font-family="Arial" font-size="13px" font-style="normal" font-weight="bold" text-decoration="none" x="427.818115234375" y="394">TSPI Store</text></g></g><g transform="translate(-390,-350) scale(1,1)"><g><path fill="none" stroke="none"/><text fill="#000000" stroke="none" font-family="Arial" font-size="13px" font-style="normal" font-weight="normal" text-decoration="none" x="405" y="419">+ttl: time</text></g></g><g transform="translate(-390,-350) scale(1,1)"><path fill="none" stroke="#000000" d="M 631 428 L 522 418" stroke-miterlimit="10"/></g><g transform="translate(-390,-350) scale(1,1)"><path fill="#FFFFFF" stroke="none" d="M 532.5047535760442 414.73654289034073 L 522 418 L 531.7355951406661 423.120369835963 L 543.9079955821654 420.0099078515748"/></g><g transform="translate(-390,-350) scale(1,1)"><path fill="none" stroke="#000000" d="M 532.5047535760442 414.73654289034073 L 522 418 L 531.7355951406661 423.120369835963 L 543.9079955821654 420.0099078515748 L 532.5047535760442 414.73654289034073" stroke-miterlimit="10"/></g></g></svg>