<svg version="1.1" xmlns="http://www.w3.org/2000/svg" xmlns:xlink="http://www.w3.org/1999/xlink" width="589.18994140625" height="566"><defs/><g><text fill="#eeeeee" stroke="none" font-family="Arial" font-size="24px" font-style="normal" font-weight="normal" text-decoration="none" x="0" y="0">UNREGISTERED</text><text fill="#eeeeee" stroke="none" font-family="Arial" font-size="24px" font-style="normal" font-weight="normal" text-decoration="none" x="0" y="30">UNREGISTERED</text><text fill="#eeeeee" stroke="none" font-family="Arial" font-size="24px" font-style="normal" font-weight="normal" text-decoration="none" x="0" y="60">UNREGISTERED</text><text fill="#eeeeee" stroke="none" font-family="Arial" font-size="24px" font-style="normal" font-weight="normal" text-decoration="none" x="0" y="90">UNREGISTERED</text><text fill="#eeeeee" stroke="none" font-family="Arial" font-size="24px" font-style="normal" font-weight="normal" text-decoration="none" x="0" y="120">UNREGISTERED</text><text fill="#eeeeee" stroke="none" font-family="Arial" font-size="24px" font-style="normal" font-weight="normal" text-decoration="none" x="0" y="150">UNREGISTERED</text><text fill="#eeeeee" stroke="none" font-family="Arial" font-size="24px" font-style="normal" font-weight="normal" text-decoration="none" x="0" y="180">UNREGISTERED</text><text fill="#eeeeee" stroke="none" font-family="Arial" font-size="24px" font-style="normal" font-weight="normal" text-decoration="none" x="0" y="210">UNREGISTERED</text><text fill="#eeeeee" stroke="none" font-family="Arial" font-size="24px" font-style="normal" font-weight="normal" text-decoration="none" x="0" y="240">UNREGISTERED</text><text fill="#eeeeee" stroke="none" font-family="Arial" font-size="24px" font-style="normal" font-weight="normal" text-decoration="none" x="0" y="270">UNREGISTERED</text><text fill="#eeeeee" stroke="none" font-family="Arial" font-size="24px" font-style="normal" font-weight="normal" text-decoration="none" x="0" y="300">UNREGISTERED</text><text fill="#eeeeee" stroke="none" font-family="Arial" font-size="24px" font-style="normal" font-weight="normal" text-decoration="none" x="0" y="330">UNREGISTERED</text><text fill="#eeeeee" stroke="none" font-family="Arial" font-size="24px" font-style="normal" font-weight="normal" text-decoration="none" x="0" y="360">UNREGISTERED</text><text fill="#eeeeee" stroke="none" font-family="Arial" font-size="24px" font-style="normal" font-weight="normal" text-decoration="none" x="0" y="390">UNREGISTERED</text><text fill="#eeeeee" stroke="none" font-family="Arial" font-size="24px" font-style="normal" font-weight="normal" text-decoration="none" x="0" y="420">UNREGISTERED</text><text fill="#eeeeee" stroke="none" font-family="Arial" font-size="24px" font-style="normal" font-weight="normal" text-decoration="none" x="0" y="450">UNREGISTERED</text><text fill="#eeeeee" stroke="none" font-family="Arial" font-size="24px" font-style="normal" font-weight="normal" text-decoration="none" x="0" y="480">UNREGISTERED</text><text fill="#eeeeee" stroke="none" font-family="Arial" font-size="24px" font-style="normal" font-weight="normal" text-decoration="none" x="0" y="510">UNREGISTERED</text><text fill="#eeeeee" stroke="none" font-family="Arial" font-size="24px" font-style="normal" font-weight="normal" text-decoration="none" x="0" y="540">UNREGISTERED</text><text fill="#eeeeee" stroke="none" font-family="Arial" font-size="24px" font-style="normal" font-weight="normal" text-decoration="none" x="200" y="0">UNREGISTERED</text><text fill="#eeeeee" stroke="none" font-family="Arial" font-size="24px" font-style="normal" font-weight="normal" text-decoration="none" x="200" y="30">UNREGISTERED</text><text fill="#eeeeee" stroke="none" font-family="Arial" font-size="24px" font-style="normal" font-weight="normal" text-decoration="none" x="200" y="60">UNREGISTERED</text><text fill="#eeeeee" stroke="none" font-family="Arial" font-size="24px" font-style="normal" font-weight="normal" text-decoration="none" x="200" y="90">UNREGISTERED</text><text fill="#eeeeee" stroke="none" font-family="Arial" font-size="24px" font-style="normal" font-weight="normal" text-decoration="none" x="200" y="120">UNREGISTERED</text><text fill="#eeeeee" stroke="none" font-family="Arial" font-size="24px" font-style="normal" font-weight="normal" text-decoration="none" x="200" y="150">UNREGISTERED</text><text fill="#eeeeee" stroke="none" font-family="Arial" font-size="24px" font-style="normal" font-weight="normal" text-decoration="none" x="200" y="180">UNREGISTERED</text><text fill="#eeeeee" stroke="none" font-family="Arial" font-size="24px" font-style="normal" font-weight="normal" text-decoration="none" x="200" y="210">UNREGISTERED</text><text fill="#eeeeee" stroke="none" font-family="Arial" font-size="24px" font-style="normal" font-weight="normal" text-decoration="none" x="200" y="240">UNREGISTERED</text><text fill="#eeeeee" stroke="none" font-family="Arial" font-size="24px" font-style="normal" font-weight="normal" text-decoration="none" x="200" y="270">UNREGISTERED</text><text fill="#eeeeee" stroke="none" font-family="Arial" font-size="24px" font-style="normal" font-weight="normal" text-decoration="none" x="200" y="300">UNREGISTERED</text><text fill="#eeeeee" stroke="none" font-family="Arial" font-size="24px" font-style="normal" font-weight="normal" text-decoration="none" x="200" y="330">UNREGISTERED</text><text fill="#eeeeee" stroke="none" font-family="Arial" font-size="24px" font-style="normal" font-weight="normal" text-decoration="none" x="200" y="360">UNREGISTERED</text><text fill="#eeeeee" stroke="none" font-family="Arial" font-size="24px" font-style="normal" font-weight="normal" text-decoration="none" x="200" y="390">UNREGISTERED</text><text fill="#eeeeee" stroke="none" font-family="Arial" font-size="24px" font-style="normal" font-weight="normal" text-decoration="none" x="200" y="420">UNREGISTERED</text><text fill="#eeeeee" stroke="none" font-family="Arial" font-size="24px" font-style="normal" font-weight="normal" text-decoration="none" x="200" y="450">UNREGISTERED</text><text fill="#eeeeee" stroke="none" font-family="Arial" font-size="24px" font-style="normal" font-weight="normal" text-decoration="none" x="200" y="480">UNREGISTERED</text><text fill="#eeeeee" stroke="none" font-family="Arial" font-size="24px" font-style="normal" font-weight="normal" text-decoration="none" x="200" y="510">UNREGISTERED</text><text fill="#eeeeee" stroke="none" font-family="Arial" font-size="24px" font-style="normal" font-weight="normal" text-decoration="none" x="200" y="540">UNREGISTERED</text><text fill="#eeeeee" stroke="none" font-family="Arial" font-size="24px" font-style="normal" font-weight="normal" text-decoration="none" x="400" y="0">UNREGISTERED</text><text fill="#eeeeee" stroke="none" font-family="Arial" font-size="24px" font-style="normal" font-weight="normal" text-decoration="none" x="400" y="30">UNREGISTERED</text><text fill="#eeeeee" stroke="none" font-family="Arial" font-size="24px" font-style="normal" font-weight="normal" text-decoration="none" x="400" y="60">UNREGISTERED</text><text fill="#eeeeee" stroke="none" font-family="Arial" font-size="24px" font-style="normal" font-weight="normal" text-decoration="none" x="400" y="90">UNREGISTERED</text><text fill="#eeeeee" stroke="none" font-family="Arial" font-size="24px" font-style="normal" font-weight="normal" text-decoration="none" x="400" y="120">UNREGISTERED</text><text fill="#eeeeee" stroke="none" font-family="Arial" font-size="24px" font-style="normal" font-weight="normal" text-decoration="none" x="400" y="150">UNREGISTERED</text><text fill="#eeeeee" stroke="none" font-family="Arial" font-size="24px" font-style="normal" font-weight="normal" text-decoration="none" x="400" y="180">UNREGISTERED</text><text fill="#eeeeee" stroke="none" font-family="Arial" font-size="24px" font-style="normal" font-weight="normal" text-decoration="none" x="400" y="210">UNREGISTERED</text><text fill="#eeeeee" stroke="none" font-family="Arial" font-size="24px" font-style="normal" font-weight="normal" text-decoration="none" x="400" y="240">UNREGISTERED</text><text fill="#eeeeee" stroke="none" font-family="Arial" font-size="24px" font-style="normal" font-weight="normal" text-decoration="none" x="400" y="270">UNREGISTERED</text><text fill="#eeeeee" stroke="none" font-family="Arial" font-size="24px" font-style="normal" font-weight="normal" text-decoration="none" x="400" y="300">UNREGISTERED</text><text fill="#eeeeee" stroke="none" font-family="Arial" font-size="24px" font-style="normal" font-weight="normal" text-decoration="none" x="400" y="330">UNREGISTERED</text><text fill="#eeeeee" stroke="none" font-family="Arial" font-size="24px" font-style="normal" font-weight="normal" text-decoration="none" x="400" y="360">UNREGISTERED</text><text fill="#eeeeee" stroke="none" font-family="Arial" font-size="24px" font-style="normal" font-weight="normal" text-decoration="none" x="400" y="390">UNREGISTERED</text><text fill="#eeeeee" stroke="none" font-family="Arial" font-size="24px" font-style="normal" font-weight="normal" text-decoration="none" x="400" y="420">UNREGISTERED</text><text fill="#eeeeee" stroke="none" font-family="Arial" font-size="24px" font-style="normal" font-weight="normal" text-decoration="none" x="400" y="450">UNREGISTERED</text><text fill="#eeeeee" stroke="none" font-family="Arial" font-size="24px" font-style="normal" font-weight="normal" text-decoration="none" x="400" y="480">UNREGISTERED</text><text fill="#eeeeee" stroke="none" font-family="Arial" font-size="24px" font-style="normal" font-weight="normal" text-decoration="none" x="400" y="510">UNREGISTERED</text><text fill="#eeeeee" stroke="none" font-family="Arial" font-size="24px" font-style="normal" font-weight="normal" text-decoration="none" x="400" y="540">UNREGISTERED</text><g transform="translate(-366,-134) scale(1,1)"><path fill="#ffffff" stroke="none" d="M 512 182.5 L 612 144 L 712 182.5 L 612 221 L 512 182.5"/></g><g transform="translate(-366,-134) scale(1,1)"><path fill="none" stroke="#000000" d="M 512 182.5 L 612 144 L 712 182.5 L 612 221 L 512 182.5 L 512 182.5" stroke-miterlimit="10"/></g><g transform="translate(-366,-134) scale(1,1)"><g><path fill="none" stroke="none"/><text fill="#000000" stroke="none" font-family="Arial" font-size="13px" font-style="normal" font-weight="normal" text-decoration="none" x="563.221435546875" y="181">Is x &gt; 2500 &amp; x &lt;</text><text fill="#000000" stroke="none" font-family="Arial" font-size="13px" font-style="normal" font-weight="normal" text-decoration="none" x="593.925048828125" y="194">15560</text></g></g><g transform="translate(-366,-134) scale(1,1)"><path fill="#ffffff" stroke="none" d="M 376 280 L 434 280 L 444 290 L 444 394 L 376 394 L 376 280"/></g><g transform="translate(-366,-134) scale(1,1)"><path fill="none" stroke="#000000" d="M 376 280 L 434 280 L 444 290 L 444 394 L 376 394 L 376 280 L 376 280" stroke-miterlimit="10"/></g><g transform="translate(-366,-134) scale(1,1)"><path fill="none" stroke="#000000" d="M 434 280 L 434 290 L 444 290 L 434 280" stroke-miterlimit="10"/></g><g transform="translate(-366,-134) scale(1,1)"><g><path fill="none" stroke="none"/><text fill="#000000" stroke="none" font-family="Arial" font-size="13px" font-style="normal" font-weight="normal" text-decoration="none" x="381" y="295">All integer</text><text fill="#000000" stroke="none" font-family="Arial" font-size="13px" font-style="normal" font-weight="normal" text-decoration="none" x="381" y="308">values</text><text fill="#000000" stroke="none" font-family="Arial" font-size="13px" font-style="normal" font-weight="normal" text-decoration="none" x="381" y="321">are in</text><text fill="#000000" stroke="none" font-family="Arial" font-size="13px" font-style="normal" font-weight="normal" text-decoration="none" x="381" y="334">yards</text><text fill="#000000" stroke="none" font-family="Arial" font-size="13px" font-style="normal" font-weight="normal" text-decoration="none" x="381" y="347">other than</text><text fill="#000000" stroke="none" font-family="Arial" font-size="13px" font-style="normal" font-weight="normal" text-decoration="none" x="381" y="360">speed</text></g></g><g transform="translate(-366,-134) scale(1,1)"><path fill="#ffffff" stroke="none" d="M 512 310.5 L 616.58447265625 272 L 721.1689453125 310.5 L 616.58447265625 349 L 512 310.5"/></g><g transform="translate(-366,-134) scale(1,1)"><path fill="none" stroke="#000000" d="M 512 310.5 L 616.58447265625 272 L 721.1689453125 310.5 L 616.58447265625 349 L 512 310.5 L 512 310.5" stroke-miterlimit="10"/></g><g transform="translate(-366,-134) scale(1,1)"><g><path fill="none" stroke="none"/><text fill="#000000" stroke="none" font-family="Arial" font-size="13px" font-style="normal" font-weight="normal" text-decoration="none" x="569.437255859375" y="309">Is y &gt; -2200  &amp; y</text><text fill="#000000" stroke="none" font-family="Arial" font-size="13px" font-style="normal" font-weight="normal" text-decoration="none" x="596.522705078125" y="322">&lt; 2200</text></g></g><g transform="translate(-366,-134) scale(1,1)"><path fill="#ffffff" stroke="none" d="M 504 422.5 L 616 384 L 728 422.5 L 616 461 L 504 422.5"/></g><g transform="translate(-366,-134) scale(1,1)"><path fill="none" stroke="#000000" d="M 504 422.5 L 616 384 L 728 422.5 L 616 461 L 504 422.5 L 504 422.5" stroke-miterlimit="10"/></g><g transform="translate(-366,-134) scale(1,1)"><g><path fill="none" stroke="none"/><text fill="#000000" stroke="none" font-family="Arial" font-size="13px" font-style="normal" font-weight="normal" text-decoration="none" x="570.83642578125" y="421">Is z &gt; 200 &amp; z &lt;</text><text fill="#000000" stroke="none" font-family="Arial" font-size="13px" font-style="normal" font-weight="normal" text-decoration="none" x="603.34912109375" y="434">8.33</text></g></g><g transform="translate(-366,-134) scale(1,1)"><path fill="#ffffff" stroke="none" d="M 536 534.5 L 616 496 L 696 534.5 L 616 573 L 536 534.5"/></g><g transform="translate(-366,-134) scale(1,1)"><path fill="none" stroke="#000000" d="M 536 534.5 L 616 496 L 696 534.5 L 616 573 L 536 534.5 L 536 534.5" stroke-miterlimit="10"/></g><g transform="translate(-366,-134) scale(1,1)"><g><path fill="none" stroke="none"/><text fill="#000000" stroke="none" font-family="Arial" font-size="13px" font-style="normal" font-weight="normal" text-decoration="none" x="576.79052734375" y="533">Is speed &lt; 40</text><text fill="#000000" stroke="none" font-family="Arial" font-size="13px" font-style="normal" font-weight="normal" text-decoration="none" x="600.464111328125" y="546">knots</text></g></g><g transform="translate(-366,-134) scale(1,1)"><rect fill="#ffffff" stroke="none" x="864" y="632" width="81.18994140625" height="58"/></g><g transform="translate(-366,-134) scale(1,1)"><path fill="none" stroke="#000000" d="M 864 632 L 945.18994140625 632 L 945.18994140625 690 L 864 690 L 864 632 Z Z" stroke-miterlimit="10"/></g><g transform="translate(-366,-134) scale(1,1)"><g><path fill="none" stroke="none"/><text fill="#000000" stroke="none" font-family="Arial" font-size="13px" font-style="normal" font-weight="normal" text-decoration="none" x="874.24365234375" y="653">Send Alert</text><text fill="#000000" stroke="none" font-family="Arial" font-size="13px" font-style="normal" font-weight="normal" text-decoration="none" x="884.35546875" y="666">Enable</text></g></g><g transform="translate(-366,-134) scale(1,1)"><path fill="none" stroke="#000000" d="M 616 221 L 616 272" stroke-miterlimit="10"/></g><g transform="translate(-366,-134) scale(1,1)"><path fill="#000000" stroke="none" d="M 611.790482243984 261.83732514237585 L 616 272 L 620.209517756016 261.83732514237585"/></g><g transform="translate(-366,-134) scale(1,1)"><path fill="none" stroke="#000000" d="M 611.790482243984 261.83732514237585 L 616 272 L 620.209517756016 261.83732514237585 L 611.790482243984 261.83732514237585" stroke-miterlimit="10"/></g><g transform="translate(-366,-134) scale(1,1)"><g><path fill="none" stroke="none"/><text fill="#000000" stroke="none" font-family="Arial" font-size="13px" font-style="normal" font-weight="normal" text-decoration="none" x="619.5" y="248.5">yes</text></g></g><g transform="translate(-366,-134) scale(1,1)"><path fill="none" stroke="#000000" d="M 616 349 L 616 384" stroke-miterlimit="10"/></g><g transform="translate(-366,-134) scale(1,1)"><path fill="#000000" stroke="none" d="M 611.790482243984 373.83732514237585 L 616 384 L 620.209517756016 373.83732514237585"/></g><g transform="translate(-366,-134) scale(1,1)"><path fill="none" stroke="#000000" d="M 611.790482243984 373.83732514237585 L 616 384 L 620.209517756016 373.83732514237585 L 611.790482243984 373.83732514237585" stroke-miterlimit="10"/></g><g transform="translate(-366,-134) scale(1,1)"><g><path fill="none" stroke="none"/><text fill="#000000" stroke="none" font-family="Arial" font-size="13px" font-style="normal" font-weight="normal" text-decoration="none" x="619.5" y="368.5">yes</text></g></g><g transform="translate(-366,-134) scale(1,1)"><path fill="none" stroke="#000000" d="M 619 461 L 619 496" stroke-miterlimit="10"/></g><g transform="translate(-366,-134) scale(1,1)"><path fill="#000000" stroke="none" d="M 614.790482243984 485.83732514237585 L 619 496 L 623.209517756016 485.83732514237585"/></g><g transform="translate(-366,-134) scale(1,1)"><path fill="none" stroke="#000000" d="M 614.790482243984 485.83732514237585 L 619 496 L 623.209517756016 485.83732514237585 L 614.790482243984 485.83732514237585" stroke-miterlimit="10"/></g><g transform="translate(-366,-134) scale(1,1)"><g><path fill="none" stroke="none"/><text fill="#000000" stroke="none" font-family="Arial" font-size="13px" font-style="normal" font-weight="normal" text-decoration="none" x="622.5" y="480.5">yes</text></g></g><g transform="translate(-366,-134) scale(1,1)"><rect fill="#ffffff" stroke="none" x="568" y="632" width="104" height="58"/></g><g transform="translate(-366,-134) scale(1,1)"><path fill="none" stroke="#000000" d="M 568 632 L 672 632 L 672 690 L 568 690 L 568 632 Z Z" stroke-miterlimit="10"/></g><g transform="translate(-366,-134) scale(1,1)"><g><path fill="none" stroke="none"/><text fill="#000000" stroke="none" font-family="Arial" font-size="13px" font-style="normal" font-weight="normal" text-decoration="none" x="593.622314453125" y="653">Store the</text><text fill="#000000" stroke="none" font-family="Arial" font-size="13px" font-style="normal" font-weight="normal" text-decoration="none" x="591.095947265625" y="666">TSPI data</text></g></g><g transform="translate(-366,-134) scale(1,1)"><path fill="none" stroke="#000000" d="M 617 573 L 617 632" stroke-miterlimit="10"/></g><g transform="translate(-366,-134) scale(1,1)"><path fill="#000000" stroke="none" d="M 612.790482243984 621.8373251423759 L 617 632 L 621.209517756016 621.8373251423759"/></g><g transform="translate(-366,-134) scale(1,1)"><path fill="none" stroke="#000000" d="M 612.790482243984 621.8373251423759 L 617 632 L 621.209517756016 621.8373251423759 L 612.790482243984 621.8373251423759" stroke-miterlimit="10"/></g><g transform="translate(-366,-134) scale(1,1)"><g><path fill="none" stroke="none"/><text fill="#000000" stroke="none" font-family="Arial" font-size="13px" font-style="normal" font-weight="normal" text-decoration="none" x="620.5" y="604.5">yes</text></g></g><g transform="translate(-366,-134) scale(1,1)"><path fill="none" stroke="#000000" d="M 712 184 L 896 184 M 896 184 A 8 8 0 0 1 904 192 L 904 632" stroke-miterlimit="10"/></g><g transform="translate(-366,-134) scale(1,1)"><path fill="#000000" stroke="none" d="M 899.790482243984 621.8373251423759 L 904 632 L 908.209517756016 621.8373251423759"/></g><g transform="translate(-366,-134) scale(1,1)"><path fill="none" stroke="#000000" d="M 899.790482243984 621.8373251423759 L 904 632 L 908.209517756016 621.8373251423759 L 899.790482243984 621.8373251423759" stroke-miterlimit="10"/></g><g transform="translate(-366,-134) scale(1,1)"><g><path fill="none" stroke="none"/><text fill="#000000" stroke="none" font-family="Arial" font-size="13px" font-style="normal" font-weight="normal" text-decoration="none" x="911.5" y="186.5">no</text></g></g><g transform="translate(-366,-134) scale(1,1)"><path fill="none" stroke="#000000" d="M 721 312 L 896 312 M 896 312 A 8 8 0 0 1 904 320 L 904 632" stroke-miterlimit="10"/></g><g transform="translate(-366,-134) scale(1,1)"><path fill="#000000" stroke="none" d="M 899.790482243984 621.8373251423759 L 904 632 L 908.209517756016 621.8373251423759"/></g><g transform="translate(-366,-134) scale(1,1)"><path fill="none" stroke="#000000" d="M 899.790482243984 621.8373251423759 L 904 632 L 908.209517756016 621.8373251423759 L 899.790482243984 621.8373251423759" stroke-miterlimit="10"/></g><g transform="translate(-366,-134) scale(1,1)"><g><path fill="none" stroke="none"/><text fill="#000000" stroke="none" font-family="Arial" font-size="13px" font-style="normal" font-weight="normal" text-decoration="none" x="911.5" y="314.5">no</text></g></g><g transform="translate(-366,-134) scale(1,1)"><path fill="none" stroke="#000000" d="M 728 424 L 896 424 M 896 424 A 8 8 0 0 1 904 432 L 904 632" stroke-miterlimit="10"/></g><g transform="translate(-366,-134) scale(1,1)"><path fill="#000000" stroke="none" d="M 899.790482243984 621.8373251423759 L 904 632 L 908.209517756016 621.8373251423759"/></g><g transform="translate(-366,-134) scale(1,1)"><path fill="none" stroke="#000000" d="M 899.790482243984 621.8373251423759 L 904 632 L 908.209517756016 621.8373251423759 L 899.790482243984 621.8373251423759" stroke-miterlimit="10"/></g><g transform="translate(-366,-134) scale(1,1)"><g><path fill="none" stroke="none"/><text fill="#000000" stroke="none" font-family="Arial" font-size="13px" font-style="normal" font-weight="normal" text-decoration="none" x="911.5" y="426.5">no</text></g></g><g transform="translate(-366,-134) scale(1,1)"><path fill="none" stroke="#000000" d="M 696 536 L 896 536 M 896 536 A 8 8 0 0 1 904 544 L 904 632" stroke-miterlimit="10"/></g><g transform="translate(-366,-134) scale(1,1)"><path fill="#000000" stroke="none" d="M 899.790482243984 621.8373251423759 L 904 632 L 908.209517756016 621.8373251423759"/></g><g transform="translate(-366,-134) scale(1,1)"><path fill="none" stroke="#000000" d="M 899.790482243984 621.8373251423759 L 904 632 L 908.209517756016 621.8373251423759 L 899.790482243984 621.8373251423759" stroke-miterlimit="10"/></g><g transform="translate(-366,-134) scale(1,1)"><g><path fill="none" stroke="none"/><text fill="#000000" stroke="none" font-family="Arial" font-size="13px" font-style="normal" font-weight="normal" text-decoration="none" x="911.5" y="538.5">no</text></g></g></g></svg>