<svg version="1.1" xmlns="http://www.w3.org/2000/svg" xmlns:xlink="http://www.w3.org/1999/xlink" width="421.18994140625" height="321"><defs/><g><text fill="#eeeeee" stroke="none" font-family="Arial" font-size="24px" font-style="normal" font-weight="normal" text-decoration="none" x="0" y="0">UNREGISTERED</text><text fill="#eeeeee" stroke="none" font-family="Arial" font-size="24px" font-style="normal" font-weight="normal" text-decoration="none" x="0" y="30">UNREGISTERED</text><text fill="#eeeeee" stroke="none" font-family="Arial" font-size="24px" font-style="normal" font-weight="normal" text-decoration="none" x="0" y="60">UNREGISTERED</text><text fill="#eeeeee" stroke="none" font-family="Arial" font-size="24px" font-style="normal" font-weight="normal" text-decoration="none" x="0" y="90">UNREGISTERED</text><text fill="#eeeeee" stroke="none" font-family="Arial" font-size="24px" font-style="normal" font-weight="normal" text-decoration="none" x="0" y="120">UNREGISTERED</text><text fill="#eeeeee" stroke="none" font-family="Arial" font-size="24px" font-style="normal" font-weight="normal" text-decoration="none" x="0" y="150">UNREGISTERED</text><text fill="#eeeeee" stroke="none" font-family="Arial" font-size="24px" font-style="normal" font-weight="normal" text-decoration="none" x="0" y="180">UNREGISTERED</text><text fill="#eeeeee" stroke="none" font-family="Arial" font-size="24px" font-style="normal" font-weight="normal" text-decoration="none" x="0" y="210">UNREGISTERED</text><text fill="#eeeeee" stroke="none" font-family="Arial" font-size="24px" font-style="normal" font-weight="normal" text-decoration="none" x="0" y="240">UNREGISTERED</text><text fill="#eeeeee" stroke="none" font-family="Arial" font-size="24px" font-style="normal" font-weight="normal" text-decoration="none" x="0" y="270">UNREGISTERED</text><text fill="#eeeeee" stroke="none" font-family="Arial" font-size="24px" font-style="normal" font-weight="normal" text-decoration="none" x="0" y="300">UNREGISTERED</text><text fill="#eeeeee" stroke="none" font-family="Arial" font-size="24px" font-style="normal" font-weight="normal" text-decoration="none" x="200" y="0">UNREGISTERED</text><text fill="#eeeeee" stroke="none" font-family="Arial" font-size="24px" font-style="normal" font-weight="normal" text-decoration="none" x="200" y="30">UNREGISTERED</text><text fill="#eeeeee" stroke="none" font-family="Arial" font-size="24px" font-style="normal" font-weight="normal" text-decoration="none" x="200" y="60">UNREGISTERED</text><text fill="#eeeeee" stroke="none" font-family="Arial" font-size="24px" font-style="normal" font-weight="normal" text-decoration="none" x="200" y="90">UNREGISTERED</text><text fill="#eeeeee" stroke="none" font-family="Arial" font-size="24px" font-style="normal" font-weight="normal" text-decoration="none" x="200" y="120">UNREGISTERED</text><text fill="#eeeeee" stroke="none" font-family="Arial" font-size="24px" font-style="normal" font-weight="normal" text-decoration="none" x="200" y="150">UNREGISTERED</text><text fill="#eeeeee" stroke="none" font-family="Arial" font-size="24px" font-style="normal" font-weight="normal" text-decoration="none" x="200" y="180">UNREGISTERED</text><text fill="#eeeeee" stroke="none" font-family="Arial" font-size="24px" font-style="normal" font-weight="normal" text-decoration="none" x="200" y="210">UNREGISTERED</text><text fill="#eeeeee" stroke="none" font-family="Arial" font-size="24px" font-style="normal" font-weight="normal" text-decoration="none" x="200" y="240">UNREGISTERED</text><text fill="#eeeeee" stroke="none" font-family="Arial" font-size="24px" font-style="normal" font-weight="normal" text-decoration="none" x="200" y="270">UNREGISTERED</text><text fill="#eeeeee" stroke="none" font-family="Arial" font-size="24px" font-style="normal" font-weight="normal" text-decoration="none" x="200" y="300">UNREGISTERED</text><text fill="#eeeeee" stroke="none" font-family="Arial" font-size="24px" font-style="normal" font-weight="normal" text-decoration="none" x="400" y="0">UNREGISTERED</text><text fill="#eeeeee" stroke="none" font-family="Arial" font-size="24px" font-style="normal" font-weight="normal" text-decoration="none" x="400" y="30">UNREGISTERED</text><text fill="#eeeeee" stroke="none" font-family="Arial" font-size="24px" font-style="normal" font-weight="normal" text-decoration="none" x="400" y="60">UNREGISTERED</text><text fill="#eeeeee" stroke="none" font-family="Arial" font-size="24px" font-style="normal" font-weight="normal" text-decoration="none" x="400" y="90">UNREGISTERED</text><text fill="#eeeeee" stroke="none" font-family="Arial" font-size="24px" font-style="normal" font-weight="normal" text-decoration="none" x="400" y="120">UNREGISTERED</text><text fill="#eeeeee" stroke="none" font-family="Arial" font-size="24px" font-style="normal" font-weight="normal" text-decoration="none" x="400" y="150">UNREGISTERED</text><text fill="#eeeeee" stroke="none" font-family="Arial" font-size="24px" font-style="normal" font-weight="normal" text-decoration="none" x="400" y="180">UNREGISTERED</text><text fill="#eeeeee" stroke="none" font-family="Arial" font-size="24px" font-style="normal" font-weight="normal" text-decoration="none" x="400" y="210">UNREGISTERED</text><text fill="#eeeeee" stroke="none" font-family="Arial" font-size="24px" font-style="normal" font-weight="normal" text-decoration="none" x="400" y="240">UNREGISTERED</text><text fill="#eeeeee" stroke="none" font-family="Arial" font-size="24px" font-style="normal" font-weight="normal" text-decoration="none" x="400" y="270">UNREGISTERED</text><text fill="#eeeeee" stroke="none" font-family="Arial" font-size="24px" font-style="normal" font-weight="normal" text-decoration="none" x="400" y="300">UNREGISTERED</text><g transform="translate(-550,-94) scale(1,1)"><rect fill="#ffffff" stroke="none" x="560" y="104" width="232" height="32"/></g><g transform="translate(-550,-94) scale(1,1)"><path fill="none" stroke="#000000" d="M 560 104 L 792 104 L 792 136 L 560 136 L 560 104 Z Z" stroke-miterlimit="10"/></g><g transform="translate(-550,-94) scale(1,1)"><g><path fill="none" stroke="none"/><text fill="#000000" stroke="none" font-family="Arial" font-size="13px" font-style="normal" font-weight="normal" text-decoration="none" x="606.648681640625" y="125">Get time from new TSPI</text></g></g><g transform="translate(-550,-94) scale(1,1)"><rect fill="#ffffff" stroke="none" x="584" y="192" width="184" height="45"/></g><g transform="translate(-550,-94) scale(1,1)"><path fill="none" stroke="#000000" d="M 584 192 L 768 192 L 768 237 L 584 237 L 584 192 Z Z" stroke-miterlimit="10"/></g><g transform="translate(-550,-94) scale(1,1)"><g><path fill="none" stroke="none"/><text fill="#000000" stroke="none" font-family="Arial" font-size="13px" font-style="normal" font-weight="normal" text-decoration="none" x="608.08642578125" y="213">Compare new time with</text><text fill="#000000" stroke="none" font-family="Arial" font-size="13px" font-style="normal" font-weight="normal" text-decoration="none" x="644.569580078125" y="226">oldest time</text></g></g><g transform="translate(-550,-94) scale(1,1)"><path fill="#ffffff" stroke="none" d="M 584 297.5 L 676 272 L 768 297.5 L 676 323 L 584 297.5"/></g><g transform="translate(-550,-94) scale(1,1)"><path fill="none" stroke="#000000" d="M 584 297.5 L 676 272 L 768 297.5 L 676 323 L 584 297.5 L 584 297.5" stroke-miterlimit="10"/></g><g transform="translate(-550,-94) scale(1,1)"><g><path fill="none" stroke="none"/><text fill="#000000" stroke="none" font-family="Arial" font-size="13px" font-style="normal" font-weight="normal" text-decoration="none" x="640.89111328125" y="296">Difference &gt;</text><text fill="#000000" stroke="none" font-family="Arial" font-size="13px" font-style="normal" font-weight="normal" text-decoration="none" x="664.444091796875" y="309">TTL</text></g></g><g transform="translate(-550,-94) scale(1,1)"><rect fill="#ffffff" stroke="none" x="888" y="272" width="73.18994140625" height="45"/></g><g transform="translate(-550,-94) scale(1,1)"><path fill="none" stroke="#000000" d="M 888 272 L 961.18994140625 272 L 961.18994140625 317 L 888 317 L 888 272 Z Z" stroke-miterlimit="10"/></g><g transform="translate(-550,-94) scale(1,1)"><g><path fill="none" stroke="none"/><text fill="#000000" stroke="none" font-family="Arial" font-size="13px" font-style="normal" font-weight="normal" text-decoration="none" x="900.391357421875" y="293">Remove</text><text fill="#000000" stroke="none" font-family="Arial" font-size="13px" font-style="normal" font-weight="normal" text-decoration="none" x="898.214111328125" y="306">Old node</text></g></g><g transform="translate(-550,-94) scale(1,1)"><path fill="none" stroke="#000000" d="M 768 296 L 888 296" stroke-miterlimit="10"/></g><g transform="translate(-550,-94) scale(1,1)"><path fill="#000000" stroke="none" d="M 877.8373251423759 300.209517756016 L 888 296 L 877.8373251423758 291.790482243984"/></g><g transform="translate(-550,-94) scale(1,1)"><path fill="none" stroke="#000000" d="M 877.8373251423759 300.209517756016 L 888 296 L 877.8373251423758 291.790482243984 L 877.8373251423759 300.209517756016" stroke-miterlimit="10"/></g><g transform="translate(-550,-94) scale(1,1)"><g><path fill="none" stroke="none"/><text fill="#000000" stroke="none" font-family="Arial" font-size="13px" font-style="normal" font-weight="normal" text-decoration="none" x="817.5" y="284.5">yes</text></g></g><g transform="translate(-550,-94) scale(1,1)"><path fill="none" stroke="#000000" d="M 928 272 L 928 229 M 928 229 A 8 8 0 0 0 920 221 L 768 221" stroke-miterlimit="10"/></g><g transform="translate(-550,-94) scale(1,1)"><path fill="#000000" stroke="none" d="M 778.1626748576241 216.790482243984 L 768 221 L 778.1626748576241 225.209517756016"/></g><g transform="translate(-550,-94) scale(1,1)"><path fill="none" stroke="#000000" d="M 778.1626748576241 216.790482243984 L 768 221 L 778.1626748576241 225.209517756016 L 778.1626748576241 216.790482243984" stroke-miterlimit="10"/></g><g transform="translate(-550,-94) scale(1,1)"><rect fill="#ffffff" stroke="none" x="592" y="360" width="168" height="45"/></g><g transform="translate(-550,-94) scale(1,1)"><path fill="none" stroke="#000000" d="M 592 360 L 760 360 L 760 405 L 592 405 L 592 360 Z Z" stroke-miterlimit="10"/></g><g transform="translate(-550,-94) scale(1,1)"><g><path fill="none" stroke="none"/><text fill="#000000" stroke="none" font-family="Arial" font-size="13px" font-style="normal" font-weight="normal" text-decoration="none" x="609.156005859375" y="381">Add new TSPI to top of</text><text fill="#000000" stroke="none" font-family="Arial" font-size="13px" font-style="normal" font-weight="normal" text-decoration="none" x="660.8291015625" y="394">stack</text></g></g><g transform="translate(-550,-94) scale(1,1)"><path fill="none" stroke="#000000" d="M 678 323 L 678 360" stroke-miterlimit="10"/></g><g transform="translate(-550,-94) scale(1,1)"><path fill="#000000" stroke="none" d="M 673.790482243984 349.83732514237585 L 678 360 L 682.209517756016 349.83732514237585"/></g><g transform="translate(-550,-94) scale(1,1)"><path fill="none" stroke="#000000" d="M 673.790482243984 349.83732514237585 L 678 360 L 682.209517756016 349.83732514237585 L 673.790482243984 349.83732514237585" stroke-miterlimit="10"/></g><g transform="translate(-550,-94) scale(1,1)"><g><path fill="none" stroke="none"/><text fill="#000000" stroke="none" font-family="Arial" font-size="13px" font-style="normal" font-weight="normal" text-decoration="none" x="684.5" y="343.5">no</text></g></g><g transform="translate(-550,-94) scale(1,1)"><path fill="none" stroke="#000000" d="M 676 237 L 676 272" stroke-miterlimit="10"/></g><g transform="translate(-550,-94) scale(1,1)"><path fill="#000000" stroke="none" d="M 671.790482243984 261.83732514237585 L 676 272 L 680.209517756016 261.83732514237585"/></g><g transform="translate(-550,-94) scale(1,1)"><path fill="none" stroke="#000000" d="M 671.790482243984 261.83732514237585 L 676 272 L 680.209517756016 261.83732514237585 L 671.790482243984 261.83732514237585" stroke-miterlimit="10"/></g><g transform="translate(-550,-94) scale(1,1)"><path fill="none" stroke="#000000" d="M 676 136 L 676 192" stroke-miterlimit="10"/></g><g transform="translate(-550,-94) scale(1,1)"><path fill="#000000" stroke="none" d="M 671.790482243984 181.83732514237585 L 676 192 L 680.209517756016 181.83732514237585"/></g><g transform="translate(-550,-94) scale(1,1)"><path fill="none" stroke="#000000" d="M 671.790482243984 181.83732514237585 L 676 192 L 680.209517756016 181.83732514237585 L 671.790482243984 181.83732514237585" stroke-miterlimit="10"/></g></g></svg>